REM GENRE "Drum & Bass"
REM DATE 2010
REM DISCID BE0FCB0F
REM COMMENT "ExactAudioCopy v0.99pb5"
PERFORMER "Pendulum"
TITLE "Immersion"
FILE "01 Genesis.m4a" WAVE
  TRACK 01 AUDIO
    PERFORMER "Pendulum"
    TITLE "Genesis"
    INDEX 01 00:00:00
FILE "02 Salt in the Wounds.m4a" WAVE
  TRACK 02 AUDIO
    PERFORMER "Pendulum"
    TITLE "Salt In The Wounds"
    INDEX 01 00:00:00
FILE "03 Watercolour.m4a" WAVE
  TRACK 03 AUDIO
    PERFORMER "Pendulum"
    TITLE "Watercolour"
    INDEX 01 00:00:00
FILE "04 Set Me On Fire.m4a" WAVE
  TRACK 04 AUDIO
    PERFORMER "Pendulum"
    TITLE "Set Me On Fire"
    INDEX 01 00:00:00
FILE "05 Crush.m4a" WAVE
  TRACK 05 AUDIO
    PERFORMER "Pendulum"
    TITLE "Crush"
    INDEX 01 00:00:00
FILE "06 Under the Waves.m4a" WAVE
  TRACK 06 AUDIO
    PERFORMER "Pendulum"
    TITLE "Under The Waves"
    INDEX 01 00:00:00
FILE "07 Immunize (ft. Liam Howlett).m4a" WAVE
  TRACK 07 AUDIO
    PERFORMER "Pendulum"
    TITLE "Immunize (ft. Liam H)"
    INDEX 01 00:00:00
FILE "08 The Island - Pt. I (Dawn).m4a" WAVE
  TRACK 08 AUDIO
    PERFORMER "Pendulum"
    TITLE "The Island - Pt. I (Dawn)"
    INDEX 01 00:00:00
FILE "09 The Island - Pt. II (Dusk).m4a" WAVE
  TRACK 09 AUDIO
    PERFORMER "Pendulum"
    TITLE "The Island - Pt. 2 (Dusk)"
    INDEX 01 00:00:00
FILE "10 Comprachicos.m4a" WAVE
  TRACK 10 AUDIO
    PERFORMER "Pendulum"
    TITLE "Comprachicos"
    INDEX 01 00:00:00
FILE "11 The Vulture.m4a" WAVE
  TRACK 11 AUDIO
    PERFORMER "Pendulum"
    TITLE "The Vulture"
    INDEX 01 00:00:00
FILE "12 Witchcraft.m4a" WAVE
  TRACK 12 AUDIO
    PERFORMER "Pendulum"
    TITLE "Witchcraft"
    INDEX 01 00:00:00
FILE "13 Self vs. Self (ft. In Flames).m4a" WAVE
  TRACK 13 AUDIO
    PERFORMER "Pendulum"
    TITLE "Self vs Self (ft. In Flames)"
    INDEX 01 00:00:00
FILE "14 The Fountain (ft. Steven Wilson).m4a" WAVE
  TRACK 14 AUDIO
    PERFORMER "Pendulum"
    TITLE "The Fountain (ft. Steve Wilson)"
    INDEX 01 00:00:00
FILE "15 Encoder.m4a" WAVE
  TRACK 15 AUDIO
    PERFORMER "Pendulum"
    TITLE "Encoder"
    INDEX 01 00:00:00
